PathFileType  4	(X/Y/Z) C:\Users\antoi\Documents\MyRepositories\mobilecap\ResultsAnalysis
DataRate	CameraRate	NumFrames	NumMarkers	Units	OrigDataRate	OrigDataStartFrame	OrigNumFrames
100.0	100.0	4	51	mm	100.0	1	271
Frame#	Time	r_knee			r_shank_antsup			r_ankle			r_calc			r_5meta			r_toe			L_knee			L_shank_antsup			L_ankle			L_calc			L_5meta			L_toe			r_sh2			r_sh3			r_sh4			L_sh2			L_sh3			r_thigh1			r_thigh2			r_thigh3			r_thigh4			r_thigh5			L_thigh1			L_thigh2			L_thigh3			L_thigh4			r.ASIS			r.PSIS			L.ASIS			L.PSIS			C7			R_Shoulder			L_Shoulder			R_Sternum			L_Sternum			R_humerus			R_elbow_med			R_elbow_lat			R_forearm			R_wrist_radius			R_wrist_ulna			L_humerus			L_elbow_med			L_elbow_lat			L_forearm			L_wrist_radius			L_wrist_ulna			R_HJC			L_HJC			R_HJC_reg			L_HJC_reg			
		X1	Y1	Z1	X2	Y2	Z2	X3	Y3	Z3	X4	Y4	Z4	X5	Y5	Z5	X6	Y6	Z6	X7	Y7	Z7	X8	Y8	Z8	X9	Y9	Z9	X10	Y10	Z10	X11	Y11	Z11	X12	Y12	Z12	X13	Y13	Z13	X14	Y14	Z14	X15	Y15	Z15	X16	Y16	Z16	X17	Y17	Z17	X18	Y18	Z18	X19	Y19	Z19	X20	Y20	Z20	X21	Y21	Z21	X22	Y22	Z22	X23	Y23	Z23	X24	Y24	Z24	X25	Y25	Z25	X26	Y26	Z26	X27	Y27	Z27	X28	Y28	Z28	X29	Y29	Z29	X30	Y30	Z30	X31	Y31	Z31	X32	Y32	Z32	X33	Y33	Z33	X34	Y34	Z34	X35	Y35	Z35	X36	Y36	Z36	X37	Y37	Z37	X38	Y38	Z38	X39	Y39	Z39	X40	Y40	Z40	X41	Y41	Z41	X42	Y42	Z42	X43	Y43	Z43	X44	Y44	Z44	X45	Y45	Z45	X46	Y46	Z46	X47	Y47	Z47	X48	Y48	Z48	X49	Y49	Z49	X50	Y50	Z50	X51	Y51	Z51	

1	0.00000000	-1188.95741	785.77061	-424.55891	-1160.20395	725.94489	-420.78906	-1202.39086	389.60598	-422.41649	-1257.65744	361.67760	-463.15709	-1090.63723	349.92812	-404.15394	-1056.63232	372.70087	-459.31639	-1172.89695	779.22304	-701.03377	-1145.88021	698.37798	-687.93992	-1207.99903	401.69268	-702.02454	-1266.83413	359.82308	-659.34767	-1106.90590	352.62889	-728.97870	-1057.54299	367.15211	-673.48551	-1176.10344	614.87529	-407.15706	-1232.55678	740.89479	-401.52041	-1256.33882	624.35612	-394.87309	-1218.89069	719.53175	-739.06763	-1229.58600	595.14495	-742.29802	-1120.09204	1032.72344	-375.49881	-1124.42289	920.60005	-395.03147	-1233.71892	922.75534	-420.25162	-1232.18883	1035.03756	-392.90503	-1188.74661	900.37753	-395.72340	-1082.04217	1049.34360	-749.64304	-1093.92938	913.68949	-716.92337	-1190.33085	1050.59766	-770.08777	-1209.75299	923.08565	-720.28036	-1064.52208	1239.67470	-448.18012	-1266.91591	1262.02503	-549.26619	-1037.89947	1236.43298	-670.15504	-1252.92356	1263.81555	-630.67898	-1203.92834	1706.29015	-570.00598	-1165.55725	1669.68232	-418.23765	-1143.36060	1675.29042	-706.13412	-1081.94083	1642.45445	-531.86001	-1079.07155	1643.26102	-572.25126	-1141.63845	1552.55838	-361.23400	-1236.19411	1348.14120	-370.64146	-1197.79090	1357.03293	-317.56651	-1128.60301	1292.35876	-312.28746	-1068.80198	1162.04496	-321.94458	-1094.47490	1150.66972	-296.84037	-1126.67589	1570.78201	-775.11408	-1183.64412	1350.26548	-770.93887	-1147.01303	1370.69392	-821.35023	-1075.85032	1289.37338	-822.39199	-1023.84252	1172.69997	-804.93263	-1048.48942	1162.57293	-835.20913	-1144.96229	1150.19960	-465.15726	-1118.46669	1150.30969	-670.96618	-1131.79557	1164.55416	-492.34148	-1106.80540	1167.75201	-637.74382	
2	0.01000000	-1187.85496	785.82720	-424.49701	-1158.88529	725.92865	-420.92320	-1202.25044	389.62366	-422.44520	-1257.61009	361.71310	-463.14826	-1090.55869	349.92948	-404.18609	-1056.57905	372.57620	-459.34786	-1172.82152	779.20774	-701.03697	-1145.62218	698.30040	-687.86132	-1207.99606	401.66769	-701.95395	-1266.81793	359.86162	-659.28366	-1106.91981	352.63157	-728.98423	-1057.58126	367.12218	-673.47134	-1175.19630	614.85953	-407.37433	-1231.22089	741.01939	-401.55690	-1254.73355	624.43883	-394.21327	-1218.76895	719.56064	-738.99660	-1229.45781	595.22579	-742.35134	-1119.62928	1032.81083	-375.91900	-1124.00568	920.64070	-395.14721	-1233.30419	922.50577	-420.35420	-1231.89874	1034.88458	-392.98228	-1188.04264	900.39836	-395.91135	-1081.30249	1049.45977	-748.21017	-1094.28486	913.76125	-717.30462	-1191.03365	1050.50000	-770.10087	-1210.05636	922.96411	-720.12412	-1064.87281	1239.62314	-448.81528	-1267.29675	1262.24082	-549.18945	-1038.61882	1236.64689	-670.66723	-1253.52507	1263.98250	-630.47137	-1202.40040	1706.70790	-569.56178	-1163.61688	1669.86130	-418.28128	-1142.17572	1675.58341	-705.90581	-1080.38249	1642.48575	-531.63905	-1077.85677	1643.23194	-572.57988	-1139.77801	1552.74370	-361.37779	-1235.38799	1348.44296	-369.95011	-1196.77563	1357.56077	-317.01233	-1127.71001	1292.66083	-312.04318	-1068.31997	1162.21390	-321.92248	-1093.99764	1150.86764	-296.61775	-1126.03607	1571.13683	-775.21037	-1184.60549	1350.84060	-772.42681	-1147.37971	1371.26487	-821.77317	-1076.57711	1289.67119	-823.26149	-1024.91493	1172.77897	-805.85746	-1049.53881	1162.83101	-836.23442	-1145.23450	1150.20568	-465.51625	-1119.27378	1150.54089	-671.39292	-1132.24115	1164.83071	-492.74882	-1107.61379	1167.94533	-638.10159	
3	0.02000000	-1186.79546	785.80569	-424.50507	-1157.64364	725.82848	-421.16438	-1202.20967	389.71493	-422.58426	-1257.54076	361.74742	-463.14336	-1090.54332	349.92576	-404.20784	-1056.54354	372.49678	-459.36174	-1172.72433	779.20390	-701.05375	-1145.35573	698.20399	-687.87204	-1207.98295	401.64870	-701.94365	-1266.96738	359.90719	-659.02786	-1106.92917	352.63785	-728.99104	-1057.61268	367.13029	-673.50074	-1174.15138	614.70650	-407.68501	-1229.93504	741.26404	-401.52479	-1253.84318	624.18483	-394.42897	-1218.60591	719.55454	-738.88765	-1229.47520	595.18294	-742.25740	-1119.44782	1032.99375	-376.11465	-1123.61688	920.77536	-395.31232	-1232.79208	922.31586	-420.39953	-1231.65613	1034.77038	-393.09086	-1187.37753	900.30120	-396.08693	-1081.53220	1049.68647	-748.00844	-1094.60841	913.81457	-717.44344	-1191.74854	1050.41096	-770.08023	-1210.32660	922.84833	-719.97945	-1065.13686	1239.64945	-449.26383	-1267.58974	1262.45750	-549.06050	-1039.33733	1236.77037	-671.05845	-1254.17157	1264.09972	-630.29172	-1200.79970	1707.11727	-569.31227	-1161.59062	1670.07246	-418.33558	-1140.96046	1675.91316	-705.79441	-1079.10510	1642.55331	-532.77132	-1076.36957	1643.20257	-572.64872	-1137.90756	1552.99184	-361.30783	-1234.62009	1349.23227	-369.07609	-1195.71362	1358.16179	-316.39753	-1126.89299	1292.99187	-311.77176	-1068.00820	1162.35926	-321.85512	-1093.59583	1151.09109	-296.33022	-1125.29288	1571.51244	-775.37880	-1184.82892	1351.59856	-772.60393	-1147.78068	1371.94369	-822.13291	-1077.27050	1290.01129	-823.97640	-1026.04033	1172.90652	-806.96758	-1050.68045	1163.15069	-837.39854	-1145.48781	1150.28595	-465.70906	-1120.03924	1150.67708	-671.64978	-1132.53367	1165.12366	-492.79704	-1108.51863	1168.06281	-638.18075	
4	0.03000000	-1185.78812	785.74048	-424.57679	-1156.47625	725.62785	-421.41669	-1202.27022	389.77453	-422.79560	-1257.51378	361.77042	-463.20056	-1090.57206	349.94478	-404.25676	-1056.53525	372.45397	-459.37494	-1172.59011	779.19494	-701.12301	-1145.05166	698.08026	-687.92600	-1207.97595	401.62417	-701.95366	-1267.13792	359.90848	-658.75575	-1106.93565	352.64318	-729.00653	-1057.62244	367.16443	-673.53240	-1173.15893	614.62280	-407.87340	-1228.69603	741.21012	-401.46313	-1253.17629	623.93488	-394.86640	-1218.44412	719.48950	-738.73326	-1229.46487	595.13814	-742.20600	-1119.30676	1033.21671	-376.26570	-1123.23270	921.04716	-395.28362	-1232.22307	922.16085	-420.37609	-1231.45890	1034.66297	-393.23366	-1186.78322	900.17529	-396.18194	-1082.41700	1049.94339	-748.60691	-1094.89666	913.86478	-717.46120	-1192.48380	1050.31907	-769.99072	-1210.59369	922.75190	-719.85305	-1065.36144	1239.67094	-449.67722	-1267.85885	1262.71211	-548.87335	-1040.03437	1236.81860	-671.32775	-1254.81625	1264.22807	-630.10642	-1199.11234	1707.51463	-569.14062	-1159.44519	1670.35527	-418.37756	-1139.66697	1676.25616	-705.72579	-1077.94365	1642.63280	-534.54826	-1074.77580	1643.14104	-572.62576	-1135.99873	1553.21133	-361.16266	-1233.89024	1350.26602	-368.15103	-1194.68944	1358.79544	-315.80536	-1126.17701	1293.35562	-311.47655	-1067.95799	1162.30406	-322.12602	-1093.34450	1151.35265	-296.04026	-1124.46492	1571.89956	-775.46657	-1185.06074	1352.43155	-772.81836	-1148.15923	1372.73927	-822.57778	-1077.96531	1290.41445	-824.66636	-1027.22632	1173.11070	-808.18106	-1051.95213	1163.47661	-838.53138	-1145.76118	1150.38731	-465.81645	-1120.81030	1150.76466	-671.81799	-1132.79534	1165.45143	-492.74416	-1109.45559	1168.16422	-638.11052	
